<svg width="256" height="213" viewBox="0 0 256 213" fill="none" xmlns="http://www.w3.org/2000/svg">
<g filter="url(#filter0_d_247_50)">
<path d="M41.0307 188.187C29.3776 172.148 22.3869 153.199 20.8314 133.434C19.2759 113.67 23.2163 93.8606 32.2168 76.196C41.2173 58.5314 54.9275 43.6999 71.8314 33.3412C88.7353 22.9824 108.175 17.5 128 17.5C147.825 17.5 167.265 22.9824 184.169 33.3412C201.073 43.6999 214.783 58.5315 223.783 76.196C232.784 93.8606 236.724 113.67 235.169 133.434C233.613 153.199 226.622 172.148 214.969 188.187" stroke="url(#paint0_linear_247_50)" stroke-width="35" stroke-miterlimit="3.8637" stroke-linecap="round"/>
</g>
<defs>
<filter id="filter0_d_247_50" x="0" y="0" width="256" height="212.688" filterUnits="userSpaceOnUse" color-interpolation-filters="sRGB">
<feFlood flood-opacity="0" result="BackgroundImageFix"/>
<feColorMatrix in="SourceAlpha" type="matrix" values="0 0 0 0 0 0 0 0 0 0 0 0 0 0 0 0 0 0 127 0" result="hardAlpha"/>
<feOffset dy="4"/>
<feGaussianBlur stdDeviation="1.5"/>
<feComposite in2="hardAlpha" operator="out"/>
<feColorMatrix type="matrix" values="0 0 0 0 0 0 0 0 0 0 0 0 0 0 0 0 0 0 0.25 0"/>
<feBlend mode="normal" in2="BackgroundImageFix" result="effect1_dropShadow_247_50"/>
<feBlend mode="normal" in="SourceGraphic" in2="effect1_dropShadow_247_50" result="shape"/>
</filter>
<linearGradient id="paint0_linear_247_50" x1="128" y1="73" x2="128" y2="209" gradientUnits="userSpaceOnUse">
<stop stop-color="#F6B834"/>
<stop offset="1" stop-color="#F39005"/>
</linearGradient>
</defs>
</svg>
