<svg width="49" height="17" viewBox="0 0 49 17" fill="none" xmlns="http://www.w3.org/2000/svg">
<rect width="49" height="17" rx="3" fill="#F45F5F"/>
<path d="M24.1346 9.12556H15.1757V8.03778H19.0013V7.26778H15.7868V4.00444H17.1068V6.19222H23.6457V7.26778H20.3213V8.03778H24.1346V9.12556ZM23.658 12.2911V13.3667H15.6524V12.2911H17.2535V10.8856H15.7502V9.82222H23.5602V10.8856H22.0568V12.2911H23.658ZM20.7613 12.2911V10.8856H18.5491V12.2911H20.7613ZM29.34 3.93111C30.5378 3.93111 31.4993 4.08593 32.2244 4.39556C32.9578 4.69704 33.3244 5.16148 33.3244 5.78889C33.3244 6.40815 32.9578 6.87259 32.2244 7.18222C31.4911 7.4837 30.5296 7.63444 29.34 7.63444C28.1504 7.63444 27.1848 7.4837 26.4433 7.18222C25.71 6.87259 25.3433 6.40815 25.3433 5.78889C25.3433 5.16148 25.71 4.69704 26.4433 4.39556C27.1767 4.08593 28.1422 3.93111 29.34 3.93111ZM29.34 4.99444C28.5741 4.99444 27.9507 5.0637 27.47 5.20222C26.9893 5.33259 26.7489 5.52815 26.7489 5.78889C26.7489 6.04148 26.9852 6.23296 27.4578 6.36333C27.9385 6.4937 28.5659 6.55889 29.34 6.55889C30.1141 6.55889 30.7374 6.4937 31.21 6.36333C31.6826 6.23296 31.9189 6.04148 31.9189 5.78889C31.9189 5.52815 31.6785 5.33259 31.1978 5.20222C30.7252 5.0637 30.1059 4.99444 29.34 4.99444ZM24.8544 9.30889V8.20889H33.8133V9.30889H24.8544ZM25.4411 13.3422V10.0544H33.2389V13.3422H25.4411ZM31.9189 11.13H26.7489V12.2789H31.9189V11.13Z" fill="#FFFFED"/>
</svg>
