<svg width="49" height="17" viewBox="0 0 49 17" fill="none" xmlns="http://www.w3.org/2000/svg">
<rect width="49" height="17" rx="3" fill="#43C34E"/>
<path d="M24.5502 6.87667H23.3768V9.01556H22.0568V4.02889H23.3768V5.53222H24.5502V6.87667ZM21.5068 8.23333C21.2461 8.35556 20.8835 8.45333 20.4191 8.52667C19.9628 8.59185 19.4617 8.62444 18.9157 8.62444H15.4446V4.15111H16.7891V7.43889H18.9891C19.5187 7.43889 20.0035 7.4063 20.4435 7.34111C20.8835 7.27593 21.238 7.1863 21.5068 7.07222V8.23333ZM20.4435 10.6167C20.3946 10.8285 20.3254 11.0037 20.2357 11.1422L23.7435 12.2667L23.3891 13.4522L19.4657 12.0833C19.0094 12.4907 18.4431 12.8004 17.7668 13.0122C17.0905 13.2322 16.3817 13.3422 15.6402 13.3422V12.12C16.398 12.12 17.0824 11.9856 17.6935 11.7167C18.3046 11.4478 18.7283 11.0811 18.9646 10.6167H15.738V9.45556H23.4502V10.6167H20.4435ZM29.34 3.93111C30.5378 3.93111 31.4993 4.08593 32.2244 4.39556C32.9578 4.69704 33.3244 5.16148 33.3244 5.78889C33.3244 6.40815 32.9578 6.87259 32.2244 7.18222C31.4911 7.4837 30.5296 7.63444 29.34 7.63444C28.1504 7.63444 27.1848 7.4837 26.4433 7.18222C25.71 6.87259 25.3433 6.40815 25.3433 5.78889C25.3433 5.16148 25.71 4.69704 26.4433 4.39556C27.1767 4.08593 28.1422 3.93111 29.34 3.93111ZM29.34 4.99444C28.5741 4.99444 27.9507 5.0637 27.47 5.20222C26.9893 5.33259 26.7489 5.52815 26.7489 5.78889C26.7489 6.04148 26.9852 6.23296 27.4578 6.36333C27.9385 6.4937 28.5659 6.55889 29.34 6.55889C30.1141 6.55889 30.7374 6.4937 31.21 6.36333C31.6826 6.23296 31.9189 6.04148 31.9189 5.78889C31.9189 5.52815 31.6785 5.33259 31.1978 5.20222C30.7252 5.0637 30.1059 4.99444 29.34 4.99444ZM24.8544 9.30889V8.20889H33.8133V9.30889H24.8544ZM25.4411 13.3422V10.0544H33.2389V13.3422H25.4411ZM31.9189 11.13H26.7489V12.2789H31.9189V11.13Z" fill="#FFFFED"/>
</svg>
