<svg width="49" height="17" viewBox="0 0 49 17" fill="none" xmlns="http://www.w3.org/2000/svg">
<rect width="49" height="17" rx="3" fill="#F6B834"/>
<path d="M21.2746 8.07444V6.95H22.3868V6.07H21.2746V4.94556H22.3868V4.02889H23.6946V9.43111H22.3868V8.07444H21.2746ZM21.1402 8.78333C20.8876 8.88111 20.5331 8.95852 20.0768 9.01556C19.6205 9.06444 19.1113 9.08889 18.5491 9.08889H15.2491V7.97667H16.1657V5.33667H15.2857V4.21222H20.9568V5.33667H20.0524V7.91556C20.4598 7.87481 20.8224 7.79741 21.1402 7.68333V8.78333ZM18.7935 7.96444V5.33667H17.4368V7.97667H17.938L18.7935 7.96444ZM19.8202 9.66333C21.0098 9.66333 21.9631 9.81815 22.6802 10.1278C23.4054 10.4293 23.768 10.9059 23.768 11.5578C23.768 12.2178 23.4094 12.6985 22.6924 13C21.9754 13.3096 21.018 13.4644 19.8202 13.4644C18.6305 13.4644 17.6772 13.3096 16.9602 13C16.2431 12.6985 15.8846 12.2178 15.8846 11.5578C15.8846 10.9059 16.2431 10.4293 16.9602 10.1278C17.6772 9.81815 18.6305 9.66333 19.8202 9.66333ZM19.8202 12.3522C20.5861 12.3522 21.1972 12.287 21.6535 12.1567C22.118 12.0263 22.3502 11.8267 22.3502 11.5578C22.3502 11.297 22.118 11.1015 21.6535 10.9711C21.1891 10.8407 20.578 10.7756 19.8202 10.7756C19.0705 10.7756 18.4635 10.8407 17.9991 10.9711C17.5346 11.1015 17.3024 11.297 17.3024 11.5578C17.3024 11.8267 17.5305 12.0263 17.9868 12.1567C18.4513 12.287 19.0624 12.3522 19.8202 12.3522ZM25.4044 5.28778V4.10222H33.2267V7.40222H31.8822V5.28778H25.4044ZM33.8133 9.06444H31.8211V11.1056H30.5133V9.06444H29.2178V11.1056H27.8978V9.06444H24.8544V7.87889H33.8133V9.06444ZM33.3733 12.1689V13.3422H25.4411V10.0789H26.7733V12.1689H33.3733Z" fill="#FFFFED"/>
</svg>
